<?xml version="1.0" encoding="UTF-8"?>
<svg xmlns="http://www.w3.org/2000/svg" xmlns:xlink="http://www.w3.org/1999/xlink" viewBox="0 0 1200 59.62">
  <defs>
    <style>
      .cls-1 {
        fill: url(#New_Gradient_Swatch_4-8);
      }

      .cls-2 {
        fill: url(#New_Gradient_Swatch_4-4);
      }

      .cls-3 {
        fill: none;
      }

      .cls-4 {
        fill: url(#New_Gradient_Swatch_4-9);
      }

      .cls-5 {
        fill: url(#New_Gradient_Swatch_4-3);
      }

      .cls-6 {
        fill: url(#New_Gradient_Swatch_4);
        stroke: url(#New_Gradient_Swatch_4-2);
        stroke-linecap: round;
        stroke-linejoin: round;
        stroke-width: 1.46px;
      }

      .cls-7 {
        fill: url(#New_Gradient_Swatch_4-5);
      }

      .cls-8 {
        fill: url(#New_Gradient_Swatch_4-7);
      }

      .cls-9 {
        fill: url(#New_Gradient_Swatch_4-6);
      }
    </style>
    <linearGradient id="New_Gradient_Swatch_4" data-name="New Gradient Swatch 4" x1="48.49" y1="31.31" x2="1156.82" y2="31.31" gradientUnits="userSpaceOnUse">
      <stop offset="0" stop-color="#f9e76c"/>
      <stop offset="1" stop-color="#f59c44"/>
    </linearGradient>
    <linearGradient id="New_Gradient_Swatch_4-2" data-name="New Gradient Swatch 4" x1="47.75" x2="1157.55" xlink:href="#New_Gradient_Swatch_4"/>
    <linearGradient id="New_Gradient_Swatch_4-3" data-name="New Gradient Swatch 4" x1="566.86" y1="31.31" x2="587.46" y2="31.31" xlink:href="#New_Gradient_Swatch_4"/>
    <linearGradient id="New_Gradient_Swatch_4-4" data-name="New Gradient Swatch 4" x1="612.54" y1="31.31" x2="633.14" y2="31.31" xlink:href="#New_Gradient_Swatch_4"/>
    <linearGradient id="New_Gradient_Swatch_4-5" data-name="New Gradient Swatch 4" x1="583.5" x2="616.5" xlink:href="#New_Gradient_Swatch_4"/>
    <linearGradient id="New_Gradient_Swatch_4-6" data-name="New Gradient Swatch 4" x1="34.32" y1="27.61" x2="62.65" y2="27.61" xlink:href="#New_Gradient_Swatch_4"/>
    <linearGradient id="New_Gradient_Swatch_4-7" data-name="New Gradient Swatch 4" x1="34.32" y1="35.01" x2="62.65" y2="35.01" xlink:href="#New_Gradient_Swatch_4"/>
    <linearGradient id="New_Gradient_Swatch_4-8" data-name="New Gradient Swatch 4" x1="1143.09" y1="27.61" x2="1171.42" y2="27.61" xlink:href="#New_Gradient_Swatch_4"/>
    <linearGradient id="New_Gradient_Swatch_4-9" data-name="New Gradient Swatch 4" x1="1143.09" y1="35.01" x2="1171.42" y2="35.01" xlink:href="#New_Gradient_Swatch_4"/>
  </defs>
  <g id="background">
    <rect class="cls-3" x="202.36" y="-156.64" width="562.36" height="350.28"/>
  </g>
  <g id="objects">
    <g>
      <line class="cls-6" x1="48.49" y1="31.31" x2="1156.82" y2="31.31"/>
      <g>
        <g>
          <polygon class="cls-5" points="587.46 31.31 577.16 24.18 566.86 31.31 577.16 38.44 587.46 31.31"/>
          <polygon class="cls-2" points="633.14 31.31 622.84 24.18 612.54 31.31 622.84 38.44 633.14 31.31"/>
        </g>
        <polygon class="cls-7" points="616.5 31.31 600 19.88 583.5 31.31 600 42.74 616.5 31.31"/>
      </g>
      <g>
        <g>
          <path class="cls-9" d="M34.32,31.31c10.67-2.91,14.16-7.4,20.36-7.4,6.8,0,7.97,7.4,7.97,7.4h-28.33Z"/>
          <path class="cls-8" d="M34.32,31.31c10.67,2.91,14.16,7.4,20.36,7.4,6.8,0,7.97-7.4,7.97-7.4h-28.33Z"/>
        </g>
        <g>
          <path class="cls-1" d="M1171.42,31.31c-10.67-2.91-14.16-7.4-20.36-7.4-6.8,0-7.97,7.4-7.97,7.4h28.33Z"/>
          <path class="cls-4" d="M1171.42,31.31c-10.67,2.91-14.16,7.4-20.36,7.4-6.8,0-7.97-7.4-7.97-7.4h28.33Z"/>
        </g>
      </g>
    </g>
  </g>
</svg>